<?xml version="1.0" encoding="UTF-8"?>
<svg id="_レイヤー_1" xmlns="http://www.w3.org/2000/svg" xmlns:xlink="http://www.w3.org/1999/xlink" version="1.1" viewBox="0 0 18.98 23.6">
  <!-- Generator: Adobe Illustrator 29.7.1, SVG Export Plug-In . SVG Version: 2.1.1 Build 8)  -->
  <defs>
    <style>
      .st0 {
        fill: none;
      }

      .st1 {
        fill: url(#_新規パターンスウォッチ_45);
        fill-rule: evenodd;
      }
    </style>
    <pattern id="_新規パターンスウォッチ_45" data-name="新規パターンスウォッチ 45" x="0" y="0" width="9.93" height="9.93" patternTransform="translate(-4578.27 -8166.52) rotate(-45) scale(.31)" patternUnits="userSpaceOnUse" viewBox="0 0 9.93 9.93">
      <g>
        <rect class="st0" x="0" width="9.93" height="9.93"/>
        <rect width="4.97" height="4.97"/>
        <rect class="st0" x="4.97" width="4.97" height="4.97"/>
        <rect y="4.97" width="4.97" height="4.97"/>
        <rect class="st0" x="4.97" y="4.97" width="4.97" height="4.97"/>
      </g>
    </pattern>
  </defs>
  <g>
    <polygon class="st1" points="4.07 23.35 4.07 17.96 14.32 17.97 14.32 4.9 18.73 4.9 18.73 23.35 4.07 23.35"/>
    <path d="M18.48,5.15v17.95H4.32v-4.89h9.75s.5,0,.5,0v-.5s0-12.56,0-12.56h3.91M18.98,4.65h-4.91v13.06s-10.25,0-10.25,0v5.89h15.16V4.65h0Z"/>
  </g>
  <path d="M14.07.5v17.22H.5V.5h13.57M14.57,0H0v18.22h14.57V0h0Z"/>
</svg>