<?xml version="1.0" encoding="UTF-8"?>
<svg id="_レイヤー_1" xmlns="http://www.w3.org/2000/svg" version="1.1" viewBox="0 0 640.82 116.35">
  <!-- Generator: Adobe Illustrator 29.7.1, SVG Export Plug-In . SVG Version: 2.1.1 Build 8)  -->
  <defs>
    <style>
      .st0 {
        fill: #b81c22;
      }

      .st1 {
        fill: #fff;
      }
    </style>
  </defs>
  <g id="_x3C_グループ_x3E_NEGATIVE">
    <path class="st0" d="M256.22,8.64l12.33,37.42h39l-31.54,22.8,12.18,37.42-31.97-22.8-31.97,22.94,12.19-37.42-31.55-22.94h39l12.34-37.42h0Z"/>
    <g>
      <path class="st1" d="M415.09,37.12l-16.77,37.79h-28.98l10.82-24.42h-63.4l2.38-13.38h95.95ZM332.13,58.87h28.88l-6.71,37.78h-28.88s6.71-37.78,6.71-37.78Z"/>
      <path class="st1" d="M433.92,74.91l-10.17-37.79,25.42.04,10.17,37.75h-25.42ZM491.57,37.15l28.89-.02-36.89,59.52h-28.88l36.89-59.5h-.01Z"/>
      <path class="st1" d="M566.75,47.03h63.5l-2.27,13.39h-63.61l-4.01,22.85h63.51l-2.28,13.39h-92.49l10.5-59.51,28.88-.02-1.73,9.89h0ZM612.76,28.2h-13.65l2.26-13.11h13.62l-2.24,13.11h.01ZM635.99,15.11l-2.38,13.1h-13.62l2.38-13.11h13.63-.01Z"/>
    </g>
    <g>
      <path class="st1" d="M93.79,37.11l-35.37,45.9h-18.17l7.24,13.62h-28.89L1.85,64.99h28.88l5.19,9.8,18.61-24.3H0l2.38-13.39h91.41Z"/>
      <path class="st1" d="M173.18,50.5l-4.76,10.73h28.88l-2.38,13.45h-32.45l-9.74,21.96h-28.88l9.74-21.96h-31.16l2.37-13.44h34.72l4.77-10.74h-37.65l2.38-13.36,92.5-.02-2.38,13.39h-25.97,0Z"/>
    </g>
  </g>
</svg>